<svg height="96" width="96" xmlns="http://www.w3.org/2000/svg" xmlns:xlink="http://www.w3.org/1999/xlink"><linearGradient id="a"><stop offset="0" stop-color="#f70"/><stop offset="1" stop-color="#ffb15d"/></linearGradient><linearGradient id="b" gradientUnits="userSpaceOnUse" x1="48" x2="48" y1="90" y2="5.987717"><stop offset="0" stop-color="#e6e6e6"/><stop offset="1" stop-color="#f5f5f5"/></linearGradient><linearGradient id="c" gradientTransform="matrix(1.0058652 0 0 .994169 100 0)" gradientUnits="userSpaceOnUse" x1="45.447727" x2="45.447727" y1="92.539597" y2="7.01654"><stop offset="0"/><stop offset="1" stop-opacity=".588235"/></linearGradient><linearGradient id="d" gradientTransform="matrix(1.0238095 0 0 1.0119048 -1.142857 -98.071429)" gradientUnits="userSpaceOnUse" x1="32.251034" x2="32.251034" xlink:href="#c" y1="6.131708" y2="90.238609"/><linearGradient id="e" gradientTransform="translate(0 -97)" gradientUnits="userSpaceOnUse" x1="32.251034" x2="32.251034" xlink:href="#c" y1="6.131708" y2="90.238609"/><linearGradient id="f"><stop offset="0" stop-color="#fff"/><stop offset="1" stop-color="#fff" stop-opacity="0"/></linearGradient><radialGradient id="g" cx="48" cy="90.171875" gradientTransform="matrix(1.1573129 0 0 .99590774 -7.551021 .197132)" gradientUnits="userSpaceOnUse" r="42" xlink:href="#f"/><linearGradient id="h" gradientUnits="userSpaceOnUse" x1="36.357143" x2="36.357143" xlink:href="#f" y1="6" y2="63.893143"/><linearGradient id="i" gradientUnits="userSpaceOnUse" x1="51.020521" x2="48.556875" xlink:href="#a" y1="81.080212" y2="15.793593"/><clipPath id="j"><path d="m-118 6c-3.324 0-6 2.676-6 6v72c0 3.324 2.676 6 6 6h72c3.324 0 6-2.676 6-6v-72c0-3.324-2.676-6-6-6zm42.53125 9.4375s6.742786 6.784262-6.4375 17.1875c-10.569721 8.348428-2.406258 13.091934 0 18.53125-6.170339-5.566626-10.691951-10.439321-7.65625-15 4.457852-6.693689 16.821977-9.970594 14.09375-20.71875zm8.125 13.34375c-14.197756 8.233791-11.545654 10.600025-8.125 15.40625 3.661158 5.156183-4.3125 9.25-4.3125 9.25s3.954627-3.226804.8125-6.84375c-10.643745-12.265213 11.625144-17.8125 11.625-17.8125zm3.59375 21.875c6.598371-.338475 10.187997 8.957958-4.59375 12.84375-.000144 0 .16215-.192534.21875-.34375 12.215092-6.34575 6.567276-12.446464 2.625-11.625-.964039.201189-1.40625.375-1.40625.375s.378571-.570411 1.0625-.8125c.731171-.256932 1.41116-.40248 2.09375-.4375zm-26.40625.625c.519115-.01358.8125 0 .8125 0s-11.82939 2.822105-4.1875 3.84375c3.227673.431901 9.630792.315402 15.625-.1875 4.897387-.41102 9.8125-1.25 9.8125-1.25s-1.719415.709928-2.96875 1.5625c-12.017218 3.160705-35.24553 1.700167-28.5625-1.53125 4.236968-2.049735 7.911406-2.39676 9.46875-2.4375zm-1.9375 7.40625s-2.823626 2.059601 1.4375 2.5c5.511613.569005 9.87295.637302 17.40625-.8125 0 0 1.050477 1.047931 2.6875 1.625-15.407629 4.506818-32.55548.346355-21.53125-3.3125zm1.53125 7.125s-2.476708 1.449143 1.78125 1.9375c5.159208.589021 7.816289.511854 13.5-.5625 0 0 1.474997.907513 3.5625 1.71875-12.745505 5.460632-28.85383-.296827-18.84375-3.09375zm-6.46875 4.71875c.614519.02364 1.14585.147618 1.46875.375 0 0-.852618-.05906-2.28125.25-1.370161.295952-5.69609 1.676512-3.375 2.6875 6.461397 2.810602 29.707491 2.165274 37.0625-.0625 3.867966-1.173437 2.03125-2.71875 2.03125-2.71875 6.739204 3.040884-14.609199 9.149373-40.59375 4.9375-8.33743-1.353006 1.38587-5.63424 5.6875-5.46875zm39.03125 3.84375c-.426144 5.547328-18.43383 6.718207-30.15625 5.96875-7.704246-.495845-9.1875-1.71875-9.1875-1.71875 7.318718 1.208433 19.649918 1.415115 29.65625-.46875 8.869621-1.668561 9.6875-3.78125 9.6875-3.78125z"/></clipPath><filter id="k" color-interpolation-filters="sRGB" height="1.250166" width="1.339317" x="-.169659" y="-.125083"><feGaussianBlur stdDeviation="3.3931715"/></filter><linearGradient id="l" gradientUnits="userSpaceOnUse" x1="-78.979478" x2="-81.443124" xlink:href="#a" y1="81.080212" y2="15.793593"/><clipPath id="m"><rect height="84" rx="6" width="84" x="6" y="6"/></clipPath><filter id="n" color-interpolation-filters="sRGB" height="1.384" width="1.384" x="-.192" y="-.192"><feGaussianBlur stdDeviation="5.28"/></filter><linearGradient id="o" gradientUnits="userSpaceOnUse" x1="48" x2="48" xlink:href="#f" y1="20.220806" y2="138.66119"/><g><g fill="url(#d)"><path d="m12-95.03125c-5.5110903 0-10.03125 4.52016-10.03125 10.03125v71c0 5.5110902 4.5201598 10.03125 10.03125 10.03125h72c5.51109 0 10.03125-4.5201597 10.03125-10.03125v-71c0-5.51109-4.52016-10.03125-10.03125-10.03125z" opacity=".08" transform="scale(1 -1)"/><path d="m12-94.03125c-4.971633 0-9.03125 4.059617-9.03125 9.03125v71c0 4.9716329 4.0596171 9.03125 9.03125 9.03125h72c4.971633 0 9.03125-4.059617 9.03125-9.03125v-71c0-4.971633-4.059617-9.03125-9.03125-9.03125z" opacity=".1" transform="scale(1 -1)"/><path d="m12-93c-4.4091333 0-8 3.590867-8 8v71c0 4.4091333 3.5908667 8 8 8h72c4.409133 0 8-3.5908667 8-8v-71c0-4.409133-3.590867-8-8-8z" opacity=".2" transform="scale(1 -1)"/><rect height="85" opacity=".3" rx="7" transform="scale(1 -1)" width="86" x="5" y="-92"/></g><rect fill="url(#e)" height="84" opacity=".45" rx="6" transform="scale(1 -1)" width="84" x="6" y="-91"/></g><g><rect fill="url(#b)" height="84" rx="6" width="84" x="6" y="6"/><path d="m12 6c-3.324 0-6 2.676-6 6v2 68 2c0 .334721.04135.6507.09375.96875.0487.295596.09704.596915.1875.875.0099.03038.02089.0636.03125.09375.09886.287771.23488.547452.375.8125.144592.273507.315616.535615.5.78125s.373776.473472.59375.6875c.439947.428056.94291.814526 1.5 1.09375.278545.139612.573473.246947.875.34375-.256202-.100222-.486711-.236272-.71875-.375-.0074-.0044-.02387.0045-.03125 0-.03193-.0193-.06229-.04251-.09375-.0625-.120395-.0767-.231023-.163513-.34375-.25-.106173-.0808-.213281-.161112-.3125-.25-.17793-.161433-.34746-.345388-.5-.53125-.107579-.130255-.218394-.265285-.3125-.40625-.02509-.03838-.03845-.08587-.0625-.125-.06476-.103032-.130228-.204517-.1875-.3125-.101008-.194706-.205675-.415701-.28125-.625-.008-.02181-.02359-.04055-.03125-.0625-.03183-.09195-.0358-.186831-.0625-.28125-.030332-.106618-.070389-.203031-.09375-.3125-.072879-.341512-.125-.698205-.125-1.0625v-2-68-2c0-2.781848 2.218152-5 5-5h2 68 2c2.781848 0 5 2.218152 5 5v2 68 2c0 .364295-.05212.720988-.125 1.0625-.04415.206893-.08838.397658-.15625.59375-.0077.02195-.0233.04069-.03125.0625-.06274.173739-.138383.367449-.21875.53125-.04158.0828-.07904.169954-.125.25-.0546.09721-.126774.18835-.1875.28125-.09411.140965-.204921.275995-.3125.40625-.143174.17445-.303141.346998-.46875.5-.01117.0102-.01998.02115-.03125.03125-.138386.125556-.285091.234436-.4375.34375-.102571.07315-.204318.153364-.3125.21875-.0074.0045-.02384-.0044-.03125 0-.232039.138728-.462548.274778-.71875.375.301527-.0968.596455-.204138.875-.34375.55709-.279224 1.060053-.665694 1.5-1.09375.219973-.214028.409366-.441865.59375-.6875s.355408-.507743.5-.78125c.14012-.265048.276135-.524729.375-.8125.01041-.03078.02133-.06274.03125-.09375.09046-.278085.1388-.579404.1875-.875.0524-.31805.09375-.634029.09375-.96875v-2-68-2c0-3.324-2.676-6-6-6z" fill="url(#h)" opacity=".5"/><path d="m12 90c-3.324 0-6-2.676-6-6v-2-68-2c0-.334721.04135-.6507.09375-.96875.0487-.295596.09704-.596915.1875-.875.00988-.03038.020892-.0636.03125-.09375.098865-.287771.2348802-.547452.375-.8125.1445918-.273507.3156161-.535615.5-.78125s.3737765-.473472.59375-.6875c.439947-.428056.94291-.814526 1.5-1.09375.278545-.139612.5734731-.246947.875-.34375-.2562018.100222-.4867109.236272-.71875.375-.00741.0044-.023866-.0045-.03125 0-.031933.0193-.062293.04251-.09375.0625-.120395.0767-.2310226.163513-.34375.25-.1061728.0808-.2132809.161112-.3125.25-.1779299.161433-.3474596.345388-.5.53125-.1075789.130255-.2183939.265285-.3125.40625-.025089.03838-.038446.08587-.0625.125-.064763.103032-.1302275.204517-.1875.3125-.1010083.194706-.2056748.415701-.28125.625-.00796.02181-.023589.04055-.03125.0625-.0318251.09195-.0358045.186831-.0625.28125-.0303323.106618-.0703894.203031-.09375.3125-.0728786.341512-.125.698205-.125 1.0625v2 68 2c0 2.781848 2.2181517 5 5 5h2 68 2c2.781848 0 5-2.218152 5-5v-2-68-2c0-.364295-.05212-.720988-.125-1.0625-.04415-.206893-.08838-.397658-.15625-.59375-.0077-.02195-.0233-.04069-.03125-.0625-.06274-.173739-.138383-.367449-.21875-.53125-.04158-.0828-.07904-.169954-.125-.25-.0546-.09721-.126774-.18835-.1875-.28125-.09411-.140965-.204921-.275995-.3125-.40625-.143174-.17445-.303141-.346998-.46875-.5-.01117-.0102-.01998-.02115-.03125-.03125-.138386-.125556-.285091-.234436-.4375-.34375-.102571-.07315-.204318-.153364-.3125-.21875-.0074-.0045-.02384.0044-.03125 0-.232039-.138728-.462548-.274778-.71875-.375.301527.0968.596455.204138.875.34375.55709.279224 1.060053.665694 1.5 1.09375.219973.214028.409366.441865.59375.6875s.355408.507743.5.78125c.14012.265048.276135.524729.375.8125.01041.03078.02133.06274.03125.09375.09046.278085.1388.579404.1875.875.0524.31805.09375.634029.09375.96875v2 68 2c0 3.324-2.676 6-6 6z" fill="url(#g)" opacity=".4"/><rect fill="#f0f" height="84" rx="6" width="84" x="-124" y="6"/></g><rect height="66" rx="12" style="opacity:.5;stroke:#fff;stroke-width:.5;stroke-linecap:round;clip-path:url(#m);fill:url(#o);filter:url(#n)" width="66" x="15" y="15"/><g fill-rule="evenodd"><path d="m-75.476487 15.447143c2.728227 10.748156-9.631123 14.016333-14.088975 20.710022-3.035701 4.560679 1.49006 9.446216 7.660399 15.012842-2.406258-5.439316-10.569721-10.205905 0-18.554333 13.180286-10.403238 6.428576-17.168531 6.428576-17.168531zm8.122332 13.319085c.000144 0-22.269074 5.557725-11.625329 17.822938 3.142127 3.616946-.808384 6.852015-.808384 6.852015s7.972539-4.082489 4.311381-9.238672c-3.420654-4.806225-6.075424-7.20249 8.122332-15.436281zm3.61848 21.903351c-.68259.03502-1.386025.166507-2.117196.423439-.683929.242089-1.03935.808384-1.03935.808384s.421762-.183755 1.385801-.384944c3.942276-.821464 9.597468 5.279579-2.617624 11.625329-.0566.151216-.231111.34645-.230967.34645 14.781747-3.885792 11.217707-13.157133 4.619336-12.818658zm-26.407204.615911c-1.557344.04074-5.23267.375417-9.469638 2.425152-6.683033 3.231417 16.545675 4.700484 28.562893 1.539779 1.249335-.852572 2.964075-1.578274 2.964075-1.578274s-4.918703.859298-9.81609 1.270318c-5.994208.502902-12.40108.624374-15.628753.192473-7.641888-1.021645 4.195897-3.849448 4.195897-3.849448s-.289269-.01358-.808384 0zm-1.963218 7.390938c-11.024233 3.658855 6.149272 7.817342 21.556901 3.310524-1.637023-.577069-2.694613-1.616767-2.694613-1.616767-7.5333 1.449802-11.887885 1.377389-17.399498.808384-4.261126-.440399-1.46279-2.502141-1.46279-2.502141zm1.539779 7.121476c-10.010082 2.796923 6.116784 8.578684 18.862289 3.118052-2.087503-.811237-3.579986-1.732251-3.579986-1.732251-5.683711 1.074354-8.35235 1.166439-13.511558.577418-4.257958-.488357-1.770745-1.963219-1.770745-1.963219zm-6.467071 4.73482c-4.301631-.16549-14.034611 4.113208-5.697181 5.466214 25.984551 4.211873 47.350866-1.886407 40.611662-4.927291 0 0 1.82776 1.521175-2.040206 2.694612-7.355009 2.227774-30.608779 2.887592-37.070176.07699-2.32109-1.010988 2.017357-2.39866 3.387518-2.694612 1.428632-.309057 2.271173-.230967 2.271173-.230967-.3229-.227382-.848271-.361304-1.46279-.384945zm39.033389 3.849447s-.830984 2.103896-9.700605 3.772457c-10.006332 1.883865-22.322021 1.670367-29.640739.461934 0 0 1.495931 1.236406 9.200177 1.732251 11.72242.749457 29.715023-.419314 30.141167-5.966642z" style="opacity:.6;stroke:#fff;stroke-width:2;clip-path:url(#j);fill:url(#l);filter:url(#k)" transform="translate(130)"/><path d="m54.523513 15.447143c2.728227 10.748156-9.631123 14.016333-14.088975 20.710022-3.035701 4.560679 1.49006 9.446216 7.660399 15.012842-2.406258-5.439316-10.569721-10.205905 0-18.554333 13.180286-10.403238 6.428576-17.168531 6.428576-17.168531zm8.122332 13.319085c.000144 0-22.269074 5.557725-11.625329 17.822938 3.142127 3.616946-.808384 6.852015-.808384 6.852015s7.972539-4.082489 4.311381-9.238672c-3.420654-4.806225-6.075424-7.20249 8.122332-15.436281zm3.61848 21.903351c-.68259.03502-1.386025.166507-2.117196.423439-.683929.242089-1.03935.808384-1.03935.808384s.421762-.183755 1.385801-.384944c3.942276-.821464 9.597468 5.279579-2.617624 11.625329-.0566.151216-.231111.34645-.230967.34645 14.781747-3.885792 11.217707-13.157133 4.619336-12.818658zm-26.407204.615911c-1.557344.04074-5.23267.375417-9.469638 2.425152-6.683034 3.231417 16.545675 4.700484 28.562893 1.539779 1.249335-.852572 2.964075-1.578274 2.964075-1.578274s-4.918703.859298-9.81609 1.270318c-5.994208.502902-12.40108.624374-15.628753.192473-7.641888-1.021645 4.195897-3.849448 4.195897-3.849448s-.289269-.01358-.808384 0zm-1.963218 7.390938c-11.024233 3.658855 6.149272 7.817342 21.556901 3.310524-1.637023-.577069-2.694613-1.616767-2.694613-1.616767-7.5333 1.449802-11.887885 1.377389-17.399498.808384-4.261126-.440399-1.46279-2.502141-1.46279-2.502141zm1.539779 7.121476c-10.010078 2.796923 6.116784 8.578684 18.862289 3.118052-2.087503-.811237-3.579986-1.732251-3.579986-1.732251-5.683711 1.074354-8.35235 1.166439-13.511558.577418-4.257958-.488357-1.770745-1.963219-1.770745-1.963219zm-6.467071 4.73482c-4.30163-.16549-14.034609 4.113208-5.697181 5.466214 25.984551 4.211873 47.350866-1.886407 40.611662-4.927291 0 0 1.82776 1.521175-2.040206 2.694612-7.355009 2.227774-30.608779 2.887592-37.070171.07699-2.321097-1.010988 2.017352-2.39866 3.387513-2.694612 1.428632-.309057 2.271173-.230967 2.271173-.230967-.3229-.227382-.848271-.361304-1.46279-.384945zm39.033389 3.849447s-.830984 2.103896-9.700605 3.772457c-10.006332 1.883865-22.322021 1.670367-29.640739.461934 0 0 1.495931 1.236406 9.200177 1.732251 11.72242.749457 29.715023-.419314 30.141167-5.966642z" fill="url(#i)"/><path d="m54.53125 16.4375c.208687.822148.301329 1.604252.34375 2.34375.02439-.635588.0086-1.301235-.09375-2-.0043-.0056.0042-.02577 0-.03125-.158874-.205307-.25-.3125-.25-.3125zm1.6875 4.3125c-.178242 2.953179-1.968359 7.015546-8.125 11.875-4.189931 3.309391-5.421986 6.051285-5.25 8.5.200936-2.196099 1.616658-4.630228 5.25-7.5 6.88076-5.431004 8.312117-9.871885 8.125-12.875zm6.4375 9.03125c.000036 0-1.39109.318569-3.3125 1.03125-.02733.01749-.0666.01382-.09375.03125-6.032133 3.873872-7.7185 6.307991-7.40625 8.53125.323823-2.357091 3.062976-5.099521 10.8125-9.59375zm-23.15625 10.03125c-.285069 3.797225 3.606914 7.844832 8.59375 12.34375-.300782-.679915-.692138-1.332799-1.125-2-.02009-.03097-.04223-.06279-.0625-.09375-3.97858-3.678859-7.063173-7.056221-7.40625-10.25zm8.6875.90625c-.165914 2.001157.598479 4.287685 2.84375 6.875.726473.836253 1.051573 1.646087 1.15625 2.40625.129168-1.022739-.0977-2.187736-1.15625-3.40625-1.873546-2.158962-2.708805-4.125419-2.84375-5.875zm7.25 6.71875c-.267838 2.236986-2.263752 4.03763-3.71875 5.0625-.598964 1.18466-1.5 1.9375-1.5 1.9375s5.748508-2.944092 5.21875-7zm10.8125 4.21875c-.68259.03502-1.362579.180568-2.09375.4375-.683929.242089-1.0625.8125-1.0625.8125s.442211-.173811 1.40625-.375c1.971138-.410732 4.370304.909204 4.75 3.125.215929-2.024805-1.172217-3.48995-2.8125-4-.06131.0015-.12564-.0032-.1875 0zm-26.40625.625c-.873765.02286-2.411422.166093-4.34375.625-1.306244.569006-2.110391 1.198375-1.21875 1.6875 1.396876-1.1178 6.375-2.3125 6.375-2.3125s-.293385-.01358-.8125 0zm22.0625 2.40625s-1.21395.182177-2.71875.40625c-.08234.05285-.170845.102233-.25.15625-9.817638 2.582183-27.108469 2.06566-29.46875.03125-2.91066 2.812427 18.202608 3.931911 29.46875.96875 1.249335-.852572 2.96875-1.5625 2.96875-1.5625zm10.03125 1.0625c-.240424 2.306386-2.326467 4.918251-7.375 6.8125-.783904.524168-1.664353 1.062224-2.6875 1.59375-.0566.151216-.218894.34375-.21875.34375 8.068639-2.121066 10.654774-5.858469 10.28125-8.75zm-34.03125 3.9375c-.321264.106625-.632137.205253-.90625.3125.0025.14514.04446.301031.15625.4375.262783-.433363.75-.75.75-.75zm-3.34375 1.90625c-1.72168 2.932844 12.159182 5.125698 24.875 1.40625-.530264-.186924-.95133-.423304-1.34375-.65625-10.826529 2.801983-22.075317 1.525165-23.53125-.75zm4.875 5.21875c-.224282.06267-.426628.121996-.625.1875.04321.05914.109904.09891.1875.15625.204034-.212944.4375-.34375.4375-.34375zm-2.96875 1.59375c-1.686972 2.825554 11.217799 6.03915 21.8125 1.5-.432333-.168012-.814183-.331728-1.1875-.5-9.067872 3.347054-19.323858 1.367991-20.625-1zm-3.5 3.125c-.952524-.036645-2.176269.149592-3.40625.46875-1.106452.491678-1.939585 1.116151-1.15625 1.65625.0055-.0049.0256.0049.03125 0 .80156-.69098 2.850166-1.312388 3.71875-1.5 1.428632-.309057 2.28125-.25 2.28125-.25-.3229-.227382-.854231-.351359-1.46875-.375zm34.90625.53125s.155387.151649.28125.375c.03336-.05512.07253-.102786.09375-.15625-.1173-.06669-.232944-.154651-.375-.21875zm1.09375.8125c-.205547.326635-.623741.639902-1.1875.96875-.0159.01313-.04572.0181-.0625.03125-.376367.295054-.949283.625412-1.875.90625-.192986.05845-.441963.09999-.65625.15625-6.737994 2.227096-21.362383 3.744119-37.90625 1.0625-1.780388-.288923-2.732536-.703518-3.09375-1.1875-.525574.882238.151645 1.710052 3.09375 2.1875 23.865384 3.868374 43.810154-.955754 41.6875-4.125zm3.03125 2.5s-.174369.348347-.9375.875c-.02503.02529-.0678.03747-.09375.0625-3.430678 3.308986-14.853354 4.39104-24.46875 4.21875-.01062-.00019-.02064.000193-.03125 0-5.244554.03105-10.153141-.302033-13.8125-.90625 0 0 1.483254 1.222905 9.1875 1.71875 11.72242.749457 29.730106-.421422 30.15625-5.96875z" fill="#fff" opacity=".8"/><path d="m54.523513 15.447143c2.728227 10.748156-9.631123 14.016333-14.088975 20.710022-3.035701 4.560679 1.49006 9.446216 7.660399 15.012842-2.406258-5.439316-10.569721-10.205905 0-18.554333 13.180286-10.403238 6.428576-17.168531 6.428576-17.168531zm8.122332 13.319085c.000144 0-22.269074 5.557725-11.625329 17.822938 3.142127 3.616946-.808384 6.852015-.808384 6.852015s7.972539-4.082489 4.311381-9.238672c-3.420654-4.806225-6.075424-7.20249 8.122332-15.436281zm3.61848 21.903351c-.68259.03502-1.386025.166507-2.117196.423439-.683929.242089-1.03935.808384-1.03935.808384s.421762-.183755 1.385801-.384944c3.942276-.821464 9.597468 5.279579-2.617624 11.625329-.0566.151216-.231111.34645-.230967.34645 14.781747-3.885792 11.217707-13.157133 4.619336-12.818658zm-26.407204.615911c-1.557344.04074-5.23267.375417-9.469638 2.425152-6.683034 3.231417 16.545675 4.700484 28.562893 1.539779 1.249335-.852572 2.964075-1.578274 2.964075-1.578274s-4.918703.859298-9.81609 1.270318c-5.994208.502902-12.40108.624374-15.628753.192473-7.641888-1.021645 4.195897-3.849448 4.195897-3.849448s-.289269-.01358-.808384 0zm-1.963218 7.390938c-11.024233 3.658855 6.149272 7.817342 21.556901 3.310524-1.637023-.577069-2.694613-1.616767-2.694613-1.616767-7.5333 1.449802-11.887885 1.377389-17.399498.808384-4.261126-.440399-1.46279-2.502141-1.46279-2.502141zm1.539779 7.121476c-10.010078 2.796923 6.116784 8.578684 18.862289 3.118052-2.087503-.811237-3.579986-1.732251-3.579986-1.732251-5.683711 1.074354-8.35235 1.166439-13.511558.577418-4.257958-.488357-1.770745-1.963219-1.770745-1.963219zm-6.467071 4.73482c-4.30163-.16549-14.034609 4.113208-5.697181 5.466214 25.984551 4.211873 47.350866-1.886407 40.611662-4.927291 0 0 1.82776 1.521175-2.040206 2.694612-7.355009 2.227774-30.608779 2.887592-37.070171.07699-2.321097-1.010988 2.017352-2.39866 3.387513-2.694612 1.428632-.309057 2.271173-.230967 2.271173-.230967-.3229-.227382-.848271-.361304-1.46279-.384945zm39.033389 3.849447s-.830984 2.103896-9.700605 3.772457c-10.006332 1.883865-22.322021 1.670367-29.640739.461934 0 0 1.495931 1.236406 9.200177 1.732251 11.72242.749457 29.715023-.419314 30.141167-5.966642z" fill="url(#i)"/><path d="m54.53125 15.4375c.113552.447351.187064.890278.25 1.3125.0042.0055-.0043.02563 0 .03125.452221.589077 1.312188 1.957559 1.4375 3.96875.203342-3.369058-1.6875-5.3125-1.6875-5.3125zm.34375 3.34375c-.314136 8.185623-10.477252 11.428489-14.4375 17.375-.779798 1.171528-1.055299 2.373312-.9375 3.59375.07653-.880317.368306-1.738623.9375-2.59375 4.116862-6.181675 14.949658-9.44685 14.4375-18.375zm7.78125 10c.000119 0-15.100437 3.747591-14.46875 11.9375.421043-5.078383 6.914778-8.325605 11.0625-9.875.02715-.01743.06642-.01376.09375-.03125.999106-.6396 2.063504-1.306912 3.3125-2.03125zm-10.8125 10.625c-.2512 1.948501 1.141862 3.609536 2.6875 5.78125.546941.770283.81321 1.537672.90625 2.25.120579-1.007074-.09235-2.103745-.90625-3.25-1.274659-1.790973-2.457916-3.232807-2.6875-4.78125zm-9 1.90625c-.19794 3.272734 2.261302 5.998662 4.0625 8.75.02027.03096.04241.06278.0625.09375.371584.342899.739104.651861 1.125 1-1.428716-3.229594-4.888335-6.197915-5.25-9.84375zm9.34375 8.6875c-.254244 2.013083-1.96875 3.4375-1.96875 3.4375s.663519-.3483 1.5-.9375c.355928-.703972.59849-1.557828.46875-2.5zm14.0625.65625c-.68259.03502-1.362579.180568-2.09375.4375-.683929.242089-1.0625.8125-1.0625.8125s.442211-.173811 1.40625-.375c.636283-.132584 1.294311-.075 1.9375.125 2.908877-.07099 5.195643 1.737658 5.5 4.09375.299475-2.872863-2.291197-5.267969-5.6875-5.09375zm-26.40625.625c-1.557344.04074-5.231782.387765-9.46875 2.4375-1.223234.591465-1.435056 1.106703-.90625 1.5625.194044-.187495.48856-.360536.90625-.5625 1.85977-.899708 3.613269-1.45348 5.125-1.8125 2.000481-.871418 5.15625-1.625 5.15625-1.625s-.293385-.01358-.8125 0zm22.0625 2.40625s-4.915113.83898-9.8125 1.25c-5.994208.502902-12.397327.619401-15.625.1875-1.110687-.148488-1.803649-.320682-2.1875-.53125-.750133.600267-.482463 1.174302 2.1875 1.53125 3.227673.431901 9.630792.315402 15.625-.1875 2.724729-.228677 5.206581-.56274 7.09375-.84375 1.217221-.781246 2.71875-1.40625 2.71875-1.40625zm7.34375 2.03125c-.254915 2.091021-2.209256 4.753892-7.375 7.4375-.0566.151216-.218894.34375-.21875.34375 1.065118-.279996 2.02591-.60719 2.90625-.9375 3.850778-2.574876 4.968001-5.006296 4.6875-6.84375zm-31.34375 2.96875c-2.994174.993742-3.909338 2.022414-3.34375 2.90625.303669-.517293 1.068286-1.058044 2.4375-1.59375-.01129-.659024.90625-1.3125.90625-1.3125zm18.84375 1.6875c-7.5333 1.449802-11.894637 1.381505-17.40625.8125-1.290871-.133415-1.918305-.42139-2.1875-.75-.384311.633777-.343193 1.488446 2.1875 1.75 5.511613.569005 9.87295.637302 17.40625-.8125 0 0 .524696.482548 1.34375.96875.452975-.117233.893047-.211917 1.34375-.34375-1.637023-.577069-2.6875-1.625-2.6875-1.625zm-17.3125 5.4375c-2.676068.747722-3.464669 1.691211-2.96875 2.59375.296997-.497448 1.048066-.978407 2.34375-1.40625-.414769-.567666.625-1.1875.625-1.1875zm-.4375 1.34375c-.448874.468477-.708596 1.258005 2.21875 1.59375 5.159208.589021 7.816289.511854 13.5-.5625 0 0 .945772.574527 2.375 1.21875.404-.149121.789203-.329355 1.1875-.5-2.087503-.811237-3.5625-1.71875-3.5625-1.71875-5.683711 1.074354-8.340792 1.151521-13.5.5625-1.219128-.139825-1.88883-.349954-2.21875-.59375zm-6.03125 3.375c-3.383053-.130151-10.111575 2.498779-8.78125 4.28125.634014-1.064267 3.01046-2.198945 5.375-2.8125.914638-.406441 2.012442-.718189 2.59375-.84375 1.428632-.309057 2.28125-.25 2.28125-.25-.3229-.227382-.854231-.351359-1.46875-.375zm34.90625.53125s.641902.546228.375 1.21875c.336534.191336.578982.385068.71875.59375.405047-.64366.07859-1.283513-1.09375-1.8125zm.28125 1.375c-.260222.429953-.901215.915604-2.3125 1.34375-7.355009 2.227774-30.601108 2.873102-37.0625.0625-.135397-.05897-.251764-.126254-.34375-.1875-.0056.0049-.02573-.0049-.03125 0-.447036.394659-.464325.82192.375 1.1875 6.291854 2.736856 28.45371 2.181672 36.40625.09375 1.037388-.342886 1.89211-.697627 2.53125-1.0625.01678-.01315.0466-.01812.0625-.03125.670644-.553725.563794-1.071224.375-1.40625zm3.84375 1.9375s-.817879 2.112689-9.6875 3.78125c-10.006332 1.883865-22.337532 1.677183-29.65625.46875 0 0 1.483254 1.222905 9.1875 1.71875 1.455669.09307 3.021599.158304 4.625.1875.01061.000193.02063-.00019.03125 0 5.235621-.0325 10.8191-.434906 15.8125-1.375 5.127606-.96461 7.509238-2.078758 8.65625-2.84375.02595-.02503.06872-.03721.09375-.0625.555664-.561391.884232-1.181584.9375-1.875z" fill="#d45500"/></g></svg>